<svg xmlns="http://www.w3.org/2000/svg" width="45" height="45" viewBox="0 0 45 45"><rect width="100%" height="100%" fill="#FF0000"/><path fill="#fff" d="M10.245 23.185h1.76v-1.89q0-.27.04-.59l-1.8 2.48Zm2.62 0h.73v.57q0 .08-.05.14-.05.06-.15.06h-.53v1.41h-.86v-1.41h-2.44q-.1 0-.17-.06-.08-.07-.1-.16l-.1-.5 2.74-3.66h.93v3.61Zm2.76-2.71-.2 1.21q.19-.04.37-.06.17-.02.34-.02.45 0 .8.14.35.13.59.37.23.24.35.56.12.33.12.7 0 .46-.16.84-.16.38-.45.65-.29.27-.68.42-.4.14-.86.14-.27 0-.52-.05-.24-.06-.45-.15-.22-.1-.4-.22-.18-.12-.33-.26l.31-.42q.09-.13.25-.13.1 0 .2.06.11.07.24.14.14.08.32.14.18.07.44.07.27 0 .48-.09.2-.09.34-.25t.21-.37q.07-.22.07-.48 0-.47-.27-.74-.28-.26-.81-.26-.42 0-.85.15l-.61-.18.48-2.8h2.85v.42q0 .21-.13.34-.13.13-.45.13h-1.59Zm8.97 3.57-.53.51-1.35-1.35-1.37 1.36-.52-.52 1.36-1.37-1.3-1.3.52-.52 1.3 1.3 1.3-1.29.53.52-1.3 1.3 1.36 1.36Zm3.46-.86h1.76v-1.89q0-.27.04-.59l-1.8 2.48Zm2.62 0h.73v.57q0 .08-.05.14-.05.06-.15.06h-.53v1.41h-.86v-1.41h-2.44q-.1 0-.17-.06-.08-.07-.1-.16l-.1-.5 2.74-3.66h.93v3.61Zm2.76-2.71-.2 1.21q.19-.04.37-.06.17-.02.34-.02.45 0 .8.14.35.13.58.37.24.24.36.56.12.33.12.7 0 .46-.16.84-.16.38-.45.65-.29.27-.68.42-.4.14-.86.14-.27 0-.52-.05-.24-.06-.46-.15-.21-.1-.39-.22-.18-.12-.33-.26l.31-.42q.09-.13.25-.13.1 0 .2.06.11.07.24.14.13.08.32.14.18.07.43.07.28 0 .48-.09.21-.09.35-.25.14-.16.21-.37.07-.22.07-.48 0-.47-.28-.74-.27-.26-.81-.26-.41 0-.84.15l-.62-.18.48-2.8h2.86v.42q0 .21-.13.34-.13.13-.45.13h-1.59Z"/></svg>